<svg height="512pt" viewBox="0 0 512 512" width="512pt" xmlns="http://www.w3.org/2000/svg"><path d="m0 0h512v512h-512z" fill="#e7eced"/><path d="m79.449219 256c0-19.5 15.808593-35.308594 35.308593-35.308594s35.3125 15.808594 35.3125 35.308594-15.8125 35.308594-35.3125 35.308594-35.308593-15.808594-35.308593-35.308594zm0 0" fill="#dd352e"/><path d="m79.449219 406.070312c0-19.5 15.808593-35.3125 35.308593-35.3125s35.3125 15.8125 35.3125 35.3125-15.8125 35.308594-35.3125 35.308594-35.308593-15.808594-35.308593-35.308594zm0 0" fill="#ed8a19"/><g fill="#28384c"><path d="m229.515625 88.277344h203.035156v35.308594h-203.035156zm0 0"/><path d="m229.515625 238.34375h203.035156v35.3125h-203.035156zm0 0"/><path d="m229.515625 388.414062h203.035156v35.308594h-203.035156zm0 0"/></g><path d="m114.757812 123.585938c-2.257812 0-4.519531-.863282-6.242187-2.585938l-26.480469-26.484375c-3.453125-3.449219-3.453125-9.027344 0-12.480469s9.03125-3.453125 12.480469 0l26.484375 26.480469c3.453125 3.453125 3.453125 9.03125 0 12.484375-1.722656 1.722656-3.980469 2.585938-6.242188 2.585938zm0 0" fill="#25ae88"/><path d="m114.75 123.585938c-1.773438 0-3.566406-.539063-5.121094-1.640626-3.972656-2.835937-4.890625-8.351562-2.054687-12.316406l44.136719-61.792968c2.832031-3.972657 8.359374-4.890626 12.3125-2.054688 3.972656 2.832031 4.890624 8.347656 2.058593 12.3125l-44.136719 61.792969c-1.722656 2.410156-4.441406 3.699219-7.195312 3.699219zm0 0" fill="#25ae88"/><path d="m114.757812 150.070312c-20.046874 0-37.5625-13.613281-42.609374-33.105468-1.21875-4.722656 1.613281-9.53125 6.335937-10.761719 4.75-1.191406 9.542969 1.625 10.761719 6.339844 3.027344 11.707031 13.515625 19.871093 25.511718 19.871093 11.996094 0 22.484376-8.164062 25.511719-19.863281 1.21875-4.722656 6.054688-7.539062 10.761719-6.335937 4.722656 1.226562 7.554688 6.035156 6.339844 10.757812-5.050782 19.484375-22.566406 33.097656-42.613282 33.097656zm0 0" fill="#208e6c"/><path d="m97.113281 75.386719c-3.039062 0-5.984375-1.5625-7.628906-4.367188-2.460937-4.210937-1.039063-9.613281 3.160156-12.078125 9.90625-5.789062 22.132813-7.433594 33.167969-4.574218 4.722656 1.230468 7.546875 6.046874 6.320312 10.761718-1.230468 4.714844-6.03125 7.566406-10.761718 6.320313-6.558594-1.710938-13.902344-.730469-19.808594 2.730469-1.40625.820312-2.941406 1.207031-4.449219 1.207031zm0 0" fill="#208e6c"/></svg>